<svg width="23" height="23" viewBox="0 0 23 23" fill="none" xmlns="http://www.w3.org/2000/svg">
<path id="Vector" d="M8.54286 0.509674C10.8086 0.509674 12.9815 1.37745 14.5836 2.92209C16.1857 4.46673 17.0857 6.56172 17.0857 8.74618C17.0857 10.7863 16.3103 12.6617 15.0354 14.1062L15.3903 14.4484H16.4286L23 20.7841L21.0286 22.6849L14.4571 16.3491V15.3481L14.1023 15.0059C12.604 16.2351 10.6589 16.9827 8.54286 16.9827C6.27715 16.9827 4.10424 16.1149 2.50214 14.5703C0.900048 13.0256 0 10.9306 0 8.74618C0 6.56172 0.900048 4.46673 2.50214 2.92209C4.10424 1.37745 6.27715 0.509674 8.54286 0.509674ZM8.54286 3.04398C5.25714 3.04398 2.62857 5.57829 2.62857 8.74618C2.62857 11.9141 5.25714 14.4484 8.54286 14.4484C11.8286 14.4484 14.4571 11.9141 14.4571 8.74618C14.4571 5.57829 11.8286 3.04398 8.54286 3.04398Z" fill="#B1B1B1"/>
</svg>
